<?xml version="1.0" encoding="utf-8"?>
<!-- Generator: Adobe Illustrator 18.1.0, SVG Export Plug-In . SVG Version: 6.00 Build 0)  -->
<svg version="1.1" id="Layer_1" xmlns="http://www.w3.org/2000/svg" xmlns:xlink="http://www.w3.org/1999/xlink" x="0px" y="0px"
	 viewBox="0 0 448 448" enable-background="new 0 0 448 448" xml:space="preserve">
<g>
	<g>
		<path fill="#999999" d="M24.5,321.9h59V339H3.1V210.9h21.4L24.5,321.9L24.5,321.9z"/>
		<path fill="#999999" d="M197.2,286.5c0,15.8-5,28.7-14.7,38.9c-9.9,10.4-22.7,15.6-38.2,15.6c-15.3,0-27.9-5.2-37.4-15.6
			c-9.5-10.4-14.5-23.3-14.5-38.9v-23.1c0-15.6,4.8-28.5,14.5-38.9c9.5-10.4,22-15.6,37.4-15.6c15.8,0,28.5,5.2,38.2,15.6
			c9.9,10.4,14.7,23.3,14.7,38.9V286.5z M175.8,263.2c0-10.6-2.8-19.4-8.6-26.4c-5.8-6.9-13.4-10.4-23.1-10.4
			c-9.3,0-16.9,3.5-22.3,10.4c-5.4,6.9-8.2,15.6-8.2,26.4v23.3c0,10.8,2.8,19.7,8.2,26.6c5.4,6.9,13,10.4,22.5,10.4
			c9.7,0,17.5-3.5,23.1-10.4c5.6-6.9,8.4-15.8,8.4-26.6L175.8,263.2L175.8,263.2z"/>
		<path fill="#999999" d="M315.8,321.7c-3.5,5-9.1,9.3-16.9,13.2c-7.8,3.9-17.7,6.1-30,6.1c-15.3,0-28.1-5-38-14.7
			c-9.9-9.7-14.9-22.5-14.9-37.8v-27c0-15.6,4.8-28.1,14-37.8c9.3-9.7,21.6-14.7,36.5-14.7c15.1,0,26.8,3.7,35.2,11.2
			c8.4,7.3,12.5,17.1,12.7,29l-0.2,0.4h-20.1c-0.4-7.1-3-12.7-7.6-17.1c-4.5-4.3-11.2-6.5-19.7-6.5c-8.9,0-16,3.2-21.4,9.9
			c-5.4,6.7-8.2,15.1-8.2,25.3v27c0,10.4,3,18.8,8.9,25.5c5.8,6.7,13.6,9.9,22.9,9.9c6.7,0,12.1-0.9,16.2-2.4
			c4.1-1.5,7.1-3.5,9.1-5.4V290h-25.5v-16h46.9V321.7z"/>
		<path fill="#999999" d="M442,286.5c0,15.8-5,28.7-14.7,38.9c-9.9,10.4-22.7,15.6-38.2,15.6c-15.3,0-27.9-5.2-37.4-15.6
			s-14.5-23.3-14.5-38.9v-23.1c0-15.6,4.8-28.5,14.5-38.9c9.5-10.4,22-15.6,37.4-15.6c15.8,0,28.5,5.2,38.2,15.6
			c9.9,10.4,14.7,23.3,14.7,38.9V286.5z M420.6,263.2c0-10.6-2.8-19.4-8.6-26.4c-5.8-6.9-13.4-10.4-23.1-10.4
			c-9.3,0-16.9,3.5-22.3,10.4c-5.4,6.9-8.2,15.6-8.2,26.4v23.3c0,10.8,2.8,19.7,8.2,26.6s13,10.4,22.5,10.4
			c9.7,0,17.5-3.5,23.1-10.4s8.4-15.8,8.4-26.6V263.2z"/>
	</g>
	<g>
		<g>
			<path fill="none" stroke="#000000" stroke-width="14.5953" stroke-miterlimit="10" d="M155.5,108.2"/>
		</g>
		<g>
			<path fill="none" stroke="#000000" stroke-width="14.5953" stroke-miterlimit="10" d="M292.5,108.2"/>
		</g>
		<g>
			<path fill="#4480F6" d="M162.8,108.2h-14.6c0-41.8,34-75.8,75.8-75.8V47C190.3,47,162.8,74.5,162.8,108.2z"/>
		</g>
		<g>
			<path fill="#DB4534" d="M299.8,108.2h-14.6c0-33.7-27.5-61.2-61.2-61.2V32.4C265.8,32.4,299.8,66.4,299.8,108.2z"/>
		</g>
		<g>
			<path fill="#CCCCCC" d="M224,184v-14.6c33.7,0,61.2-27.5,61.2-61.2h14.6C299.8,150,265.8,184,224,184z"/>
		</g>
		<g>
			<path fill="#F3B500" d="M224,184c-41.8,0-75.8-34-75.8-75.8h14.6c0,33.7,27.5,61.2,61.2,61.2V184z"/>
		</g>
	</g>
</g>
</svg>
